<?xml version="1.0" encoding="utf-8"?><svg viewBox="0 0 674 523" xmlns="http://www.w3.org/2000/svg" xmlns:xlink="http://www.w3.org/1999/xlink"><style>:root>svg{display:none}:root>svg:target{display:block}</style><svg fill="none" viewBox="0 0 13 13" id="In" xmlns="http://www.w3.org/2000/svg"><path d="M3.105 12.5H.543V3.929h2.562V12.5Zm9.395 0H9.938V7.921c0-1.193-.424-1.787-1.263-1.787-.666 0-1.088.333-1.3.999V12.5H4.813s.034-7.714 0-8.571h2.023l.156 1.714h.053C7.57 4.786 8.41 4.205 9.56 4.205c.876 0 1.584.244 2.124.858.544.614.815 1.439.815 2.597v4.84ZM1.824 3.071c.731 0 1.324-.575 1.324-1.285S2.555.5 1.824.5C1.093.5.5 1.076.5 1.786c0 .71.593 1.285 1.324 1.285Z" fill="#fff"/></svg><svg fill="none" viewBox="0 0 20 20" id="bar" xmlns="http://www.w3.org/2000/svg"><g clip-path="url(#ba)"><path d="M10 11.667 6.667 8.333h6.666L10 11.667Z" fill="#010101"/></g><defs><clipPath id="ba"><path fill="#fff" d="M0 0h20v20H0z"/></clipPath></defs></svg><svg fill="none" viewBox="0 0 674 523" id="boxes" xmlns="http://www.w3.org/2000/svg"><ellipse cx="376.049" cy="504.274" rx="239.094" ry="18.727" fill="#BDBDBD"/><path d="m509.518 165.649 12.186-3.288c1.812-.494 2.882-2.303 2.388-4.112l-10.951-40.207c-.494-1.809-2.305-2.878-4.117-2.385l-12.186 3.289c-1.811.493-2.882 2.302-2.388 4.111l10.951 40.208c.494 1.809 2.306 2.796 4.117 2.384ZM112.295 259.444l12.186-3.289c1.811-.493 2.881-2.302 2.387-4.111l-10.951-40.207c-.494-1.809-2.305-2.878-4.116-2.385l-12.187 3.289c-1.811.493-2.881 2.302-2.387 4.111l10.951 40.208c.494 1.809 2.305 2.796 4.117 2.384ZM456.424 244.679l9.128-8.707c1.361-1.292 3.465-1.269 4.759.09l28.771 30.178c1.294 1.359 1.272 3.46-.089 4.752l-9.129 8.707c-1.361 1.292-3.464 1.269-4.758-.09l-28.772-30.178c-1.293-1.359-1.2-3.418.09-4.752ZM42.343 405.488l16.303 1.069c2.635.165 4.858-1.809 5.105-4.44l4.117-63.477c.164-2.631-1.812-4.851-4.447-5.098l-16.303-1.069c-2.635-.164-4.858 1.809-5.105 4.44l-4.116 63.477c-.165 2.714 1.81 4.934 4.446 5.098ZM440.199 453.038l8.975-11.922c1.399-1.809.988-4.44-.824-5.838l-42.898-32.15c-1.812-1.398-4.446-.986-5.846.822l-8.975 11.923c-1.4 1.809-.988 4.44.823 5.838l42.899 32.15c1.893 1.397 4.446.986 5.846-.823ZM2.982 143.414l16.797 11.101c2.059 1.397 4.858.822 6.176-1.234l26.101-39.303c1.4-2.056.823-4.851-1.235-6.167l-16.797-11.1c-2.059-1.398-4.858-.822-6.175 1.233l-26.02 39.303c-1.482 2.056-.905 4.769 1.153 6.167ZM334.047 51.865l14.08 9.292c1.976 1.315 4.611.74 5.928-1.234l28.571-43.003c1.318-1.973.742-4.604-1.235-5.92l-14.079-9.291c-1.977-1.316-4.611-.74-5.929 1.233l-28.571 43.003c-1.235 1.974-.741 4.605 1.235 5.92Z" fill="#273DA4" stroke="#010101" stroke-width="2" stroke-miterlimit="10"/><path d="m441.422 155.608-4.281-17.678a4.271 4.271 0 0 0-5.188-3.125l-47.344 11.512a4.263 4.263 0 0 0-3.129 5.18l4.282 17.678a4.27 4.27 0 0 0 5.187 3.124l47.345-11.511a4.263 4.263 0 0 0 3.128-5.18ZM672.87 344.964l-4.281-17.679a4.27 4.27 0 0 0-5.188-3.124l-47.344 11.511a4.264 4.264 0 0 0-3.129 5.18l4.282 17.679a4.27 4.27 0 0 0 5.187 3.124l47.345-11.511a4.263 4.263 0 0 0 3.128-5.18ZM396.612 260.685l-11.28 4.193c-1.564.576-2.388 2.302-1.811 3.865l12.515 33.465c.576 1.562 2.305 2.384 3.87 1.809l11.28-4.194c1.565-.575 2.388-2.302 1.812-3.864l-12.516-33.466c-.576-1.562-2.305-2.384-3.87-1.808ZM147.964 435.199l-8.81-6.331c-1.565-1.069-3.706-.74-4.776.822l-27.336 38.07c-1.071 1.562-.741 3.7.823 4.769l8.81 6.331c1.565 1.069 3.706.74 4.776-.822l27.336-38.07c1.071-1.562.741-3.618-.823-4.769ZM564.764 252.111l11.692 4.44c1.647.576 3.376-.247 4.035-1.809L593.5 220.29c.576-1.644-.247-3.371-1.811-4.029l-11.692-4.44c-1.647-.575-3.376.247-4.035 1.809l-13.009 34.452c-.577 1.645.164 3.453 1.811 4.029ZM155.369 109.196l16.632-4.604c2.553-.74 4.117-3.371 3.376-6.002l-16.632-59.86c-.741-2.549-3.376-4.11-6.011-3.37l-16.632 4.604c-2.553.74-4.117 3.37-3.376 6.002l16.632 59.859c.741 2.549 3.458 4.111 6.011 3.371ZM237.48 177.055l6.669-14.636c.824-1.891 0-4.029-1.811-4.934l-36.229-16.527c-1.894-.822-4.035 0-4.94 1.809l-6.67 14.636c-.823 1.891 0 4.029 1.812 4.934l36.229 16.527c1.893.904 4.117.082 4.94-1.809Z" fill="#D062D1" stroke="#010101" stroke-width="2" stroke-miterlimit="10"/><path d="m364.849 507.569-180.566-3.592-.856-163.55h181.422v167.142Z" fill="#D062D1" stroke="#010101" stroke-miterlimit="10"/><path d="m364.845 340.427 63.729 14.713v137.717l-63.729 14.627V340.427Z" fill="#B648B7" stroke="#010101" stroke-miterlimit="10"/><path d="m291.704 505.944-37.689-.77-.257-164.747h37.689l.257 165.517ZM410.145 496.818l-19.102 4.448V346.441l19.102 4.362v146.015Z" fill="#fff" stroke="#010101" stroke-miterlimit="10"/><path d="M365.616 307.747h-193.5v32.847h193.5v-32.847Z" fill="#D062D1" stroke="#010101" stroke-miterlimit="10"/><path d="m436.618 356.846-71.438-16.851.428-32.248 71.952 20.187-.942 28.912Z" fill="#B648B7" stroke="#010101" stroke-miterlimit="10"/><path d="M296.842 306.414h-35.89v34.13h35.89v-34.13ZM417.944 352.386l-18.502-4.277.686-30.537 17.902 5.218-.086 29.596Z" fill="#fff" stroke="#010101" stroke-miterlimit="10"/><path d="M214.864 232.01c-14.905 6.758-20.387 17.279-14.819 36.782 3.94 10.949 29.295 38.492 58.589 36.696-25.697-18.818-30.922-56.455-13.705-58.252-5.739-19.417-30.065-15.226-30.065-15.226Z" fill="#AAA" stroke="#010101" stroke-miterlimit="10"/><path d="M202.781 274.031c-2.912-13.686.171-31.136 12.849-32.248 12.677-1.112 29.551 3.336 50.023 29.768 13.534 17.535 15.933 39.433 25.612 34.472-2.57-50.896-12.763-75.103-39.745-93.665-9.251-6.415-24.241-7.271-40.602 3.678-4.454 2.823-7.366 5.56-11.049 9.409-18.074 18.904 2.912 48.586 2.912 48.586Z" fill="#fff" stroke="#010101" stroke-miterlimit="10"/><path d="M361.511 223.622c2.741 24.464-19.787 40.289-40.687 60.134-10.964 10.436-16.446 20.7-16.446 20.7-4.626-3.678-2.313-7.1-1.2-12.146 22.186-33.275 25.184-57.226 17.303-62.957 3.341-13.515 34.52-32.333 41.03-5.731Z" fill="#AAA" stroke="#010101" stroke-miterlimit="10"/><path d="M290.43 304.558c-9.594-56.028-8.223-83.229.942-101.363 9.851-19.588 20.044-24.293 38.717-15.055 29.723 14.713 31.779 24.464 31.436 35.499-5.396-12.575-17.56-11.634-25.097-5.903-7.538 5.731-23.556 24.635-28.439 52.264-1.541 9.495-4.539 27.116-3.597 34.558-3.855 1.026-13.534 2.566-13.962 0Z" fill="#fff" stroke="#010101" stroke-miterlimit="10"/><path d="M376.574 264.363c5.139 12.66 2.741 37.038-40.002 41.828 20.729 11.805 77.263 3.422 79.575-14.456 3.341-22.753-8.48-28.142-20.814-31.136-12.421-2.994-18.759 3.764-18.759 3.764Z" fill="#AAA" stroke="#010101" stroke-miterlimit="10"/><path d="M304.65 304.462c21.157-36.61 57.733-76.043 82.745-75.701 13.362 0 35.547 49.783 28.695 63.127-.943-18.562-11.821-24.464-27.496-23.95-15.676.598-48.996 30.622-65.442 36.61-13.963 3.25-18.502-.086-18.502-.086ZM285.362 306.111c-10.45-4.875-33.92-6.501-44.456.257-12.42 6.159-48.653 43.197-57.647 64.667 17.645-23.438 56.019-10.778 56.191 21.556 8.309-33.018 43.942-83.999 45.912-86.48Z" fill="#fff" stroke="#010101" stroke-miterlimit="10"/><path d="M300.268 305.392c29.124 18.476 46.17 45.506 53.45 72.28 8.994 34.814-5.739 55.771-8.565 65.779 47.111-62.358 49.938 0 49.938 0 16.103-38.236 11.649-77.412-11.821-104.357-23.47-26.945-40.002-34.9-48.91-37.894-8.994-3.079-28.267.685-34.092 4.192ZM512.915 504.363l-95.285-1.896-.452-86.306h95.737v88.202Z" fill="#fff" stroke="#010101" stroke-miterlimit="10"/><path d="m512.913 416.161 33.63 7.764v72.674l-33.63 7.718v-88.156Z" fill="#DEDEDE" stroke="#010101" stroke-miterlimit="10"/><path d="m474.317 503.505-19.889-.406-.136-86.938h19.889l.136 87.344ZM536.818 498.689l-10.08 2.347v-81.701l10.08 2.302v77.052Z" fill="#273DA4" stroke="#010101" stroke-miterlimit="10"/><path d="M513.32 398.916H411.21v17.333h102.11v-17.333Z" fill="#fff" stroke="#010101" stroke-miterlimit="10"/><path d="m550.788 424.826-37.698-8.893.226-17.017 37.969 10.653-.497 15.257Z" fill="#DEDEDE" stroke="#010101" stroke-miterlimit="10"/><path d="M477.028 398.213h-18.939v18.01h18.939v-18.01ZM540.934 422.472l-9.764-2.257.362-16.114 9.447 2.753-.045 15.618Z" fill="#273DA4" stroke="#010101" stroke-miterlimit="10"/><path d="M433.768 358.95c-7.865 3.566-10.758 9.118-7.82 19.41 2.079 5.777 15.459 20.312 30.918 19.364-13.561-9.93-16.318-29.792-7.233-30.739-3.028-10.247-15.865-8.035-15.865-8.035Z" fill="#152365" stroke="#010101" stroke-miterlimit="10"/><path d="M427.392 381.124c-1.537-7.222.09-16.43 6.78-17.017 6.69-.587 15.594 1.76 26.397 15.708 7.142 9.254 8.408 20.809 13.516 18.191-1.356-26.857-6.735-39.632-20.974-49.427-4.881-3.385-12.792-3.837-21.425 1.941-2.351 1.49-3.888 2.934-5.831 4.965-9.538 9.976 1.537 25.639 1.537 25.639Z" fill="#273DA4" stroke="#010101" stroke-miterlimit="10"/><path d="M511.154 354.523c1.446 12.91-10.442 21.261-21.471 31.733-5.786 5.507-8.679 10.923-8.679 10.923-2.441-1.94-1.22-3.746-.632-6.409 11.707-17.559 13.289-30.198 9.13-33.222 1.763-7.132 18.216-17.063 21.652-3.025Z" fill="#152365" stroke="#010101" stroke-miterlimit="10"/><path d="M473.644 397.233c-5.062-29.566-4.339-43.92.497-53.489 5.198-10.337 10.577-12.82 20.431-7.945 15.685 7.764 16.77 12.91 16.589 18.733-2.847-6.635-9.266-6.139-13.244-3.115-3.977 3.025-12.43 13-15.007 27.58-.813 5.011-2.395 14.309-1.898 18.236-2.034.542-7.142 1.354-7.368 0Z" fill="#273DA4" stroke="#010101" stroke-miterlimit="10"/><path d="M519.102 376.022c2.713 6.681 1.447 19.545-21.109 22.073 10.939 6.229 40.772 1.806 41.992-7.628 1.763-12.007-4.474-14.851-10.983-16.431-6.555-1.58-9.9 1.986-9.9 1.986Z" fill="#152365" stroke="#010101" stroke-miterlimit="10"/><path d="M481.148 397.183c11.165-19.32 30.466-40.129 43.664-39.948 7.052 0 18.759 26.271 15.143 33.312-.497-9.795-6.238-12.909-14.51-12.638-8.272.316-25.855 16.159-34.534 19.319-7.367 1.715-9.763-.045-9.763-.045ZM470.97 398.053c-5.515-2.573-17.9-3.431-23.46.135-6.554 3.25-25.674 22.795-30.42 34.125 9.311-12.368 29.562-5.687 29.652 11.375 4.384-17.423 23.188-44.326 24.228-45.635Z" fill="#273DA4" stroke="#010101" stroke-miterlimit="10"/><path d="M478.836 397.673c15.368 9.75 24.363 24.014 28.206 38.143 4.746 18.371-3.029 29.43-4.521 34.711 24.861-32.906 26.353 0 26.353 0 8.498-20.177 6.147-40.85-6.238-55.069-12.385-14.219-21.109-18.417-25.81-19.997-4.746-1.625-14.916.362-17.99 2.212Z" fill="#273DA4" stroke="#010101" stroke-miterlimit="10"/></svg><svg fill="none" viewBox="0 0 12 13" id="fb" xmlns="http://www.w3.org/2000/svg"><path d="M9 4.386H6.786V3.14c0-.468.361-.577.616-.577h1.562V.507L6.813.5C4.424.5 3.88 2.034 3.88 3.015v1.37H2.5v2.12h1.38V12.5h2.906V6.504h1.96L9 4.386Z" fill="#fff"/></svg><svg fill="none" viewBox="0 0 24 16" id="flag" xmlns="http://www.w3.org/2000/svg"><g clip-path="url(#ea)"><path d="M24 15a1 1 0 0 1-1 1H0l9.6-8H24v7Z" fill="#D42029"/><path d="M24 8H9.6L0 0h23a1 1 0 0 1 1 1v7Z" fill="#FF6B0A"/></g><defs><clipPath id="ea"><rect width="24" height="16" rx="2" fill="#fff"/></clipPath></defs></svg><svg fill="none" viewBox="0 0 13 13" id="ig" xmlns="http://www.w3.org/2000/svg"><circle cx="11.75" cy="1.25" r=".75" fill="#fff"/><path fill-rule="evenodd" clip-rule="evenodd" d="M6.5 11.75a5.25 5.25 0 1 0 0-10.5 5.25 5.25 0 0 0 0 10.5Zm0-1.75a3.5 3.5 0 1 0 0-7 3.5 3.5 0 0 0 0 7Z" fill="#fff"/></svg><svg fill="none" viewBox="0 0 100 30" id="logo" xmlns="http://www.w3.org/2000/svg"><path fill-rule="evenodd" clip-rule="evenodd" d="M100 0H56v30h44V0ZM69.896 8.26V21.358c0 .028.002.055 0 .082-.007.075.013.12.1.108.02-.002.04-.002.062-.001h.03l1.093.001h2.252c.07.001.104.001.12-.015.015-.016.015-.048.013-.11V8.28l-.001-.031a.469.469 0 0 1 0-.062c.008-.077-.018-.117-.101-.108a.315.315 0 0 1-.051.001H72.283c-.737-.001-1.474-.002-2.21 0l-.058-.001c-.06-.001-.091-.001-.106.014s-.015.046-.014.108v.06Zm18.278-.181H82.7c-1.824 0-3.648 0-5.47-.002h-.124c-.062-.003-.084.027-.079.084v3.235c0 .067 0 .1.016.116s.047.016.11.015h3.481c.112 0 .167 0 .195.028.027.027.027.08.027.188v9.689c-.001.055-.002.084.013.099.015.016.048.016.118.016h3.334c.103 0 .154 0 .18-.026.025-.025.025-.075.025-.175V11.651c-.002-.06-.002-.09.013-.106.017-.017.052-.017.124-.017h3.546c.152 0 .152 0 .153-.149V8.211c.001-.068.002-.101-.015-.118-.016-.016-.049-.015-.114-.015h-.059ZM44 0H0v30h44l12-15L44 0ZM19.455 12.808l.202.163c.045-.027.073-.065.1-.1a1.71 1.71 0 0 1 .018-.025c.238-.283.475-.568.712-.853.476-.568.95-1.136 1.423-1.706.095-.114.091-.167-.017-.259a12.043 12.043 0 0 0-.26-.219c-.753-.616-1.58-1.096-2.516-1.375a8.877 8.877 0 0 0-1.916-.331c-.848-.057-1.69-.03-2.522.163-2.918.672-5.095 3.086-5.35 6.182a7.317 7.317 0 0 0 .21 2.473c.487 1.838 1.543 3.245 3.22 4.172.913.505 1.903.772 2.943.855.881.07 1.753.017 2.614-.177 1.456-.328 2.742-.99 3.887-1.938a.314.314 0 0 0 .128-.27c-.003-1.474-.003-2.949-.003-4.423v-1.105l-.002-.058c-.003-.043-.006-.086.005-.125.014-.046-.01-.072-.035-.097-.02-.021-.039-.042-.036-.073.006-.05-.028-.058-.068-.058H16.01a.65.65 0 0 1-.072 0c-.062-.006-.082.025-.078.082a.619.619 0 0 1 0 .107v2.981c-.002.059-.002.09.012.105.016.016.05.016.118.015h2.546c.067-.002.1-.002.116.014.014.015.014.045.013.104v.073a42.131 42.131 0 0 1 0 .63v.006c0 .29 0 .291-.262.417-.767.366-1.576.471-2.413.366-.929-.115-1.672-.554-2.217-1.313a3.505 3.505 0 0 1-.621-1.653c-.091-.767.002-1.504.35-2.2.42-.837 1.054-1.437 1.966-1.713.64-.194 1.287-.143 1.928-.003.581.126 1.087.41 1.553.765.171.13.337.264.506.4Zm17.2-2.794c-1.433-1.303-3.14-1.923-4.903-1.937-.814.001-1.423.067-2.069.235-1.873.488-3.34 1.536-4.314 3.208-1 1.716-1.203 3.556-.644 5.449.626 2.116 1.959 3.656 4.021 4.514 1.585.657 3.226.745 4.881.31 1.923-.503 3.398-1.616 4.364-3.353.814-1.465 1.032-3.036.729-4.676-.273-1.474-.954-2.737-2.066-3.75Zm-7.91 3.308c.624-1.15 1.621-1.702 2.589-1.723 1.963-.005 3.247 1.1 3.597 2.63.212.923.118 1.819-.336 2.657-.534.984-1.367 1.557-2.488 1.684-1.084.125-2.03-.181-2.803-.96a3.356 3.356 0 0 1-.921-1.795c-.162-.87-.062-1.712.362-2.493Z" fill="#010101"/></svg><svg fill="none" viewBox="0 0 206 24" id="logo2" xmlns="http://www.w3.org/2000/svg"><g opacity=".2" fill-rule="evenodd" clip-rule="evenodd" fill="#FBFBFB"><path d="M35.417 0H0v24h35.417l9.32-12-9.32-12ZM15.592 10.247l.002.001.16.13a.282.282 0 0 0 .08-.08l.014-.02c.191-.226.38-.454.57-.681l.002-.002 1.14-1.365c.076-.091.073-.133-.014-.207a9.448 9.448 0 0 0-.208-.175c-.603-.493-1.266-.877-2.017-1.1a7.127 7.127 0 0 0-1.535-.265c-.68-.045-1.354-.023-2.022.13-2.338.538-4.084 2.47-4.288 4.946a5.842 5.842 0 0 0 .168 1.979c.39 1.47 1.237 2.596 2.58 3.337.733.404 1.526.617 2.36.684a6.96 6.96 0 0 0 2.095-.142c1.167-.262 2.199-.792 3.116-1.55a.251.251 0 0 0 .103-.216c-.003-1.18-.003-2.36-.003-3.538v-.884c0-.015 0-.03-.002-.046-.002-.035-.005-.07.005-.1.01-.037-.01-.058-.028-.079-.016-.016-.032-.033-.03-.057.006-.04-.022-.047-.054-.047h-4.955c-.02.001-.039.002-.058 0-.05-.005-.066.02-.062.065a.504.504 0 0 1 0 .058v.805a730.193 730.193 0 0 0 0 1.608c-.002.047-.002.071.01.084.012.013.039.013.094.012h2.041c.054-.001.08-.002.092.011.012.012.012.036.011.083V14.194c0 .23 0 .233-.21.333a3.417 3.417 0 0 1-1.934.293 2.481 2.481 0 0 1-1.777-1.05 2.801 2.801 0 0 1-.498-1.323c-.073-.613.001-1.203.28-1.76.337-.67.846-1.15 1.577-1.37.512-.155 1.031-.115 1.545-.003.466.101.871.328 1.245.613.137.103.27.21.405.32Zm13.786-2.235c-1.148-1.042-2.516-1.539-3.93-1.55-.652.002-1.14.055-1.658.189-1.502.39-2.677 1.228-3.458 2.566-.801 1.373-.964 2.845-.516 4.36.502 1.692 1.57 2.924 3.223 3.61 1.27.526 2.586.596 3.912.249 1.542-.403 2.724-1.294 3.498-2.683.653-1.172.828-2.429.585-3.74-.219-1.18-.765-2.19-1.656-3Zm-6.34 2.647c.5-.92 1.3-1.362 2.075-1.379 1.574-.004 2.603.88 2.884 2.104.17.738.094 1.455-.27 2.125-.428.788-1.096 1.246-1.994 1.348-.87.1-1.628-.145-2.247-.768a2.683 2.683 0 0 1-.738-1.436c-.13-.696-.05-1.37.29-1.994ZM80.155 0H44.738v24h35.417V0ZM55.923 6.608v10.478c.001.022.002.044 0 .066-.005.06.011.096.08.086a.375.375 0 0 1 .075 0h.883a860.09 860.09 0 0 0 1.789 0h.02c.056 0 .084.001.097-.012.012-.013.012-.038.01-.087V6.598c-.001-.016-.002-.033 0-.05.006-.06-.015-.093-.082-.086-.013.002-.027.002-.04.001a.53.53 0 0 0-.022 0h-2.667l-.047-.001c-.049 0-.073-.001-.085.011-.013.012-.012.037-.011.087v.048Zm14.713-.145H66.228l-4.402-.001h-.099c-.05-.003-.067.02-.063.066V9.117c0 .053 0 .08.012.093.013.012.038.012.089.012H64.567c.09 0 .135 0 .157.022.022.021.022.065.022.15v7.751c-.001.044-.002.067.01.08.012.012.039.012.095.012h2.684c.083 0 .124 0 .144-.02.02-.021.02-.061.02-.14V9.32c0-.048-.001-.072.011-.085.013-.014.041-.014.1-.014h2.855c.121 0 .121 0 .122-.119V6.57c.001-.055.002-.081-.012-.095-.013-.013-.04-.012-.092-.012h-.047ZM84.163 0H206v24H84.163V0Zm106.368 17.153c.822.215 1.675.323 2.559.323 1.069 0 1.952-.16 2.651-.477.709-.318 1.238-.738 1.588-1.262a3.052 3.052 0 0 0 .539-1.738c0-.564-.113-1.03-.339-1.4a2.525 2.525 0 0 0-.863-.908 4.617 4.617 0 0 0-1.202-.554 11.8 11.8 0 0 0-1.311-.353c-.431-.093-.832-.18-1.202-.262a3.412 3.412 0 0 1-.879-.338c-.215-.144-.323-.334-.323-.57 0-.184.056-.348.169-.492.113-.144.298-.256.555-.338.257-.093.596-.139 1.018-.139.472 0 .96.072 1.464.215a7.011 7.011 0 0 1 1.526.616l.94-2.262a6.489 6.489 0 0 0-1.834-.692 8.817 8.817 0 0 0-2.081-.246c-1.059 0-1.942.159-2.651.477-.709.318-1.244.738-1.603 1.261a3.084 3.084 0 0 0-.525 1.754c0 .574.113 1.051.34 1.43.226.37.519.673.878.909.36.225.756.41 1.187.554.442.143.879.261 1.31.353.442.093.843.185 1.203.277.359.093.652.21.878.354.226.144.339.339.339.585a.657.657 0 0 1-.185.461c-.113.123-.298.226-.554.308-.257.072-.596.108-1.018.108a6.454 6.454 0 0 1-1.896-.293 7.323 7.323 0 0 1-1.665-.769l-1.002 2.246c.514.349 1.177.636 1.989.862ZM113.809 6.49h3.052v10.77h-3.052v-4.2h-4.162v4.2h-3.052V6.49h3.052v4.046h4.162V6.491ZM95.381 17.29V6.519h4.932c.987 0 1.834.16 2.544.477.719.318 1.274.78 1.664 1.385.391.595.586 1.302.586 2.123 0 .81-.195 1.513-.586 2.108-.39.595-.945 1.056-1.664 1.384-.71.318-1.557.477-2.544.477h-1.88v2.816H95.38Zm4.747-5.216h-1.695V8.92h1.695c.637 0 1.11.139 1.418.416.319.277.478.666.478 1.169 0 .492-.159.877-.478 1.154-.308.277-.781.415-1.418.415Zm18.886-5.582v10.77h3.052V6.49h-3.052Zm5.224 10.77V6.49h3.052v8.354h5.148v2.415h-8.2Zm9.408-10.77v10.77h3.052V6.49h-3.052Zm5.223 10.77V6.49h4.933c.987 0 1.834.16 2.543.477.72.318 1.275.78 1.665 1.385.391.595.586 1.302.586 2.123 0 .81-.195 1.513-.586 2.108-.39.594-.945 1.056-1.665 1.384-.709.318-1.556.477-2.543.477h-1.881v2.816h-3.052Zm4.748-5.216h-1.696V8.891h1.696c.637 0 1.11.139 1.418.416.319.277.478.666.478 1.169 0 .492-.159.877-.478 1.154-.308.277-.781.415-1.418.415Zm6.467-5.554v10.77h3.052v-2.816h1.881c.986 0 1.834-.159 2.543-.477.719-.328 1.274-.79 1.665-1.384.39-.595.586-1.298.586-2.108 0-.82-.196-1.528-.586-2.123-.391-.605-.946-1.067-1.665-1.385-.709-.318-1.557-.477-2.543-.477h-4.933Zm3.052 5.554h1.696c.637 0 1.11-.138 1.418-.415.318-.277.478-.662.478-1.154 0-.503-.16-.892-.478-1.17-.308-.276-.781-.415-1.418-.415h-1.696v3.154Zm8.163 5.216V6.49h3.052v10.77h-3.052Zm5.223-10.77v10.77h2.991v-5.74l4.763 5.74h2.512V6.49h-2.99v5.74l-4.763-5.74h-2.513Zm15.44 8.416v-1.97h4.794v-2.276h-4.794V8.845h5.442V6.491h-8.463v10.77h8.663v-2.354h-5.642Z"/></g></svg><svg fill="none" viewBox="0 0 12 12" id="wa" xmlns="http://www.w3.org/2000/svg"><g clip-path="url(#ia)"><path d="M6.044 0a5.866 5.866 0 0 0-5.86 5.86c0 1.103.306 2.171.888 3.1L.12 11.504a.368.368 0 0 0 .474.474l2.625-.983a5.856 5.856 0 0 0 2.825.725c3.23 0 5.86-2.629 5.86-5.86C11.903 2.63 9.273 0 6.043 0Zm2.823 7.7c-.163.581-.775 1.004-1.454 1.004-.067 0-.134-.005-.199-.013-.825-.118-1.79-.685-2.585-1.516-.837-.8-1.403-1.765-1.515-2.584-.114-.829.257-1.447.992-1.653a.438.438 0 0 1 .118-.016c.43 0 .943.608 1.12 1.044.117.283.108.502-.025.632-.332.326-.456.524-.442.707.016.203.206.438.528.776a10.008 10.008 0 0 0 .32.32c.359.342.593.528.804.528.175 0 .366-.124.678-.443a.379.379 0 0 1 .282-.106c.388 0 .935.379 1.203.732.162.214.223.418.175.587Z" fill="#fff"/></g><defs><clipPath id="ia"><path fill="#fff" d="M0 0h12v12H0z"/></clipPath></defs></svg><svg fill="none" viewBox="0 0 12 13" id="yt" xmlns="http://www.w3.org/2000/svg"><path fill-rule="evenodd" clip-rule="evenodd" d="M10.688 2.74c.517.131.923.52 1.061 1.013.251.894.251 2.76.251 2.76s0 1.864-.25 2.758c-.139.494-.545.866-1.062.998-.936.24-4.688.24-4.688.24s-3.752 0-4.688-.24C.795 10.137.389 9.765.25 9.27 0 8.378 0 6.512 0 6.512s0-1.865.25-2.76A1.47 1.47 0 0 1 1.313 2.74C2.248 2.5 6 2.5 6 2.5s3.752 0 4.688.24ZM4.773 4.818v3.387l3.136-1.694L4.773 4.82Z" fill="#fff"/></svg></svg>