<svg width="674" height="523" viewBox="0 0 674 523" fill="none" xmlns="http://www.w3.org/2000/svg">
<ellipse cx="376.049" cy="504.274" rx="239.094" ry="18.7265" fill="#BDBDBD"/>
<path d="M509.518 165.649L521.704 162.361C523.516 161.867 524.586 160.058 524.092 158.249L513.141 118.042C512.647 116.233 510.836 115.164 509.024 115.657L496.838 118.946C495.027 119.439 493.956 121.248 494.45 123.057L505.401 163.265C505.895 165.074 507.707 166.061 509.518 165.649Z" fill="#273DA4" stroke="#010101" stroke-width="2" stroke-miterlimit="10"/>
<path d="M112.295 259.444L124.481 256.155C126.292 255.662 127.362 253.853 126.868 252.044L115.917 211.837C115.423 210.028 113.612 208.959 111.801 209.452L99.6144 212.741C97.803 213.234 96.7326 215.043 97.2266 216.852L108.178 257.06C108.672 258.869 110.483 259.856 112.295 259.444Z" fill="#273DA4" stroke="#010101" stroke-width="2" stroke-miterlimit="10"/>
<path d="M456.424 244.679L465.552 235.972C466.913 234.68 469.017 234.703 470.311 236.062L499.082 266.24C500.376 267.599 500.354 269.7 498.993 270.992L489.864 279.699C488.503 280.991 486.4 280.968 485.106 279.609L456.334 249.431C455.041 248.072 455.134 246.013 456.424 244.679Z" fill="#273DA4" stroke="#010101" stroke-width="2" stroke-miterlimit="10"/>
<path d="M42.3427 405.488L58.6457 406.557C61.2805 406.722 63.5037 404.748 63.7507 402.117L67.8676 338.64C68.0323 336.009 66.0562 333.789 63.4213 333.542L47.1183 332.473C44.4835 332.309 42.2604 334.282 42.0134 336.913L37.8965 400.39C37.7318 403.104 39.7079 405.324 42.3427 405.488Z" fill="#273DA4" stroke="#010101" stroke-width="2" stroke-miterlimit="10"/>
<path d="M440.199 453.038L449.174 441.116C450.573 439.307 450.162 436.676 448.35 435.278L405.452 403.128C403.64 401.73 401.006 402.142 399.606 403.95L390.631 415.873C389.231 417.682 389.643 420.313 391.454 421.711L434.353 453.861C436.246 455.258 438.799 454.847 440.199 453.038Z" fill="#273DA4" stroke="#010101" stroke-width="2" stroke-miterlimit="10"/>
<path d="M2.98227 143.414L19.7793 154.515C21.8377 155.912 24.6373 155.337 25.9547 153.281L52.056 113.978C53.4557 111.922 52.8793 109.127 50.8209 107.811L34.0238 96.7109C31.9654 95.3131 29.1659 95.8887 27.8485 97.9443L1.82954 137.247C0.347446 139.303 0.923809 142.016 2.98227 143.414Z" fill="#273DA4" stroke="#010101" stroke-width="2" stroke-miterlimit="10"/>
<path d="M334.047 51.8655L348.127 61.1568C350.103 62.4724 352.738 61.8968 354.055 59.9234L382.626 16.9202C383.944 14.9468 383.368 12.3156 381.391 11L367.312 1.70871C365.335 0.393124 362.701 0.96869 361.383 2.94207L332.812 45.9453C331.577 47.9187 332.071 50.5499 334.047 51.8655Z" fill="#273DA4" stroke="#010101" stroke-width="2" stroke-miterlimit="10"/>
<path d="M441.422 155.608L437.141 137.93C436.564 135.627 434.259 134.23 431.953 134.805L384.609 146.317C382.303 146.892 380.904 149.194 381.48 151.497L385.762 169.175C386.338 171.477 388.644 172.875 390.949 172.299L438.294 160.788C440.599 160.212 441.999 157.91 441.422 155.608Z" fill="#D062D1" stroke="#010101" stroke-width="2" stroke-miterlimit="10"/>
<path d="M672.87 344.964L668.589 327.285C668.012 324.983 665.707 323.585 663.401 324.161L616.057 335.672C613.751 336.248 612.352 338.55 612.928 340.852L617.21 358.531C617.786 360.833 620.092 362.231 622.397 361.655L669.742 350.144C672.047 349.568 673.447 347.266 672.87 344.964Z" fill="#D062D1" stroke="#010101" stroke-width="2" stroke-miterlimit="10"/>
<path d="M396.612 260.685L385.332 264.878C383.768 265.454 382.944 267.18 383.521 268.743L396.036 302.208C396.612 303.77 398.341 304.592 399.906 304.017L411.186 299.823C412.751 299.248 413.574 297.521 412.998 295.959L400.482 262.493C399.906 260.931 398.177 260.109 396.612 260.685Z" fill="#D062D1" stroke="#010101" stroke-width="2" stroke-miterlimit="10"/>
<path d="M147.964 435.199L139.154 428.868C137.589 427.799 135.448 428.128 134.378 429.69L107.042 467.76C105.971 469.322 106.301 471.46 107.865 472.529L116.675 478.86C118.24 479.929 120.381 479.6 121.451 478.038L148.787 439.968C149.858 438.406 149.528 436.35 147.964 435.199Z" fill="#D062D1" stroke="#010101" stroke-width="2" stroke-miterlimit="10"/>
<path d="M564.764 252.111L576.456 256.551C578.103 257.127 579.832 256.304 580.491 254.742L593.5 220.29C594.076 218.646 593.253 216.919 591.689 216.261L579.997 211.821C578.35 211.246 576.621 212.068 575.962 213.63L562.953 248.082C562.376 249.727 563.117 251.535 564.764 252.111Z" fill="#D062D1" stroke="#010101" stroke-width="2" stroke-miterlimit="10"/>
<path d="M155.369 109.196L172.001 104.592C174.554 103.852 176.118 101.221 175.377 98.5895L158.745 38.7303C158.004 36.1813 155.369 34.6191 152.734 35.3591L136.102 39.9636C133.549 40.7037 131.985 43.3348 132.726 45.966L149.358 105.825C150.099 108.374 152.816 109.936 155.369 109.196Z" fill="#D062D1" stroke="#010101" stroke-width="2" stroke-miterlimit="10"/>
<path d="M237.48 177.055L244.149 162.419C244.973 160.528 244.149 158.39 242.338 157.485L206.109 140.958C204.215 140.136 202.074 140.958 201.169 142.767L194.499 157.403C193.676 159.294 194.499 161.432 196.311 162.337L232.54 178.864C234.433 179.768 236.657 178.946 237.48 177.055Z" fill="#D062D1" stroke="#010101" stroke-width="2" stroke-miterlimit="10"/>
<path d="M364.849 507.569L184.283 503.977L183.427 340.427H364.849V507.569Z" fill="#D062D1" stroke="#010101" stroke-miterlimit="10"/>
<path d="M364.845 340.427L428.574 355.14V492.857L364.845 507.484V340.427Z" fill="#B648B7" stroke="#010101" stroke-miterlimit="10"/>
<path d="M291.704 505.944L254.015 505.174L253.758 340.427H291.447L291.704 505.944Z" fill="white" stroke="#010101" stroke-miterlimit="10"/>
<path d="M410.145 496.818L391.043 501.266V346.441L410.145 350.803V496.818Z" fill="white" stroke="#010101" stroke-miterlimit="10"/>
<path d="M365.616 307.747H172.116V340.594H365.616V307.747Z" fill="#D062D1" stroke="#010101" stroke-miterlimit="10"/>
<path d="M436.618 356.846L365.18 339.995L365.608 307.747L437.56 327.934L436.618 356.846Z" fill="#B648B7" stroke="#010101" stroke-miterlimit="10"/>
<path d="M296.842 306.414H260.952V340.544H296.842V306.414Z" fill="white" stroke="#010101" stroke-miterlimit="10"/>
<path d="M417.944 352.386L399.442 348.109L400.128 317.572L418.03 322.79L417.944 352.386Z" fill="white" stroke="#010101" stroke-miterlimit="10"/>
<path d="M214.864 232.01C199.959 238.768 194.477 249.289 200.045 268.792C203.985 279.741 229.34 307.284 258.634 305.488C232.937 286.67 227.712 249.033 244.929 247.236C239.19 227.819 214.864 232.01 214.864 232.01Z" fill="#AAAAAA" stroke="#010101" stroke-miterlimit="10"/>
<path d="M202.781 274.031C199.869 260.345 202.952 242.895 215.63 241.783C228.307 240.671 245.181 245.119 265.653 271.551C279.187 289.086 281.586 310.984 291.265 306.023C288.695 255.127 278.502 230.92 251.52 212.358C242.269 205.943 227.279 205.087 210.918 216.036C206.464 218.859 203.552 221.596 199.869 225.445C181.795 244.349 202.781 274.031 202.781 274.031Z" fill="white" stroke="#010101" stroke-miterlimit="10"/>
<path d="M361.511 223.622C364.252 248.086 341.724 263.911 320.824 283.756C309.86 294.192 304.378 304.456 304.378 304.456C299.752 300.778 302.065 297.356 303.178 292.31C325.364 259.035 328.362 235.084 320.481 229.353C323.822 215.838 355.001 197.02 361.511 223.622Z" fill="#AAAAAA" stroke="#010101" stroke-miterlimit="10"/>
<path d="M290.43 304.558C280.836 248.53 282.207 221.329 291.372 203.195C301.223 183.607 311.416 178.902 330.089 188.14C359.812 202.853 361.868 212.604 361.525 223.639C356.129 211.064 343.965 212.005 336.428 217.736C328.89 223.467 312.872 242.371 307.989 270C306.448 279.495 303.45 297.116 304.392 304.558C300.537 305.584 290.858 307.124 290.43 304.558Z" fill="white" stroke="#010101" stroke-miterlimit="10"/>
<path d="M376.574 264.363C381.713 277.023 379.315 301.401 336.572 306.191C357.301 317.996 413.835 309.613 416.147 291.735C419.488 268.982 407.667 263.593 395.333 260.599C382.912 257.605 376.574 264.363 376.574 264.363Z" fill="#AAAAAA" stroke="#010101" stroke-miterlimit="10"/>
<path d="M304.65 304.462C325.807 267.852 362.383 228.419 387.395 228.761C400.757 228.761 422.942 278.544 416.09 291.888C415.147 273.326 404.269 267.424 388.594 267.938C372.918 268.536 339.598 298.56 323.152 304.548C309.189 307.798 304.65 304.462 304.65 304.462Z" fill="white" stroke="#010101" stroke-miterlimit="10"/>
<path d="M285.362 306.111C274.912 301.236 251.442 299.61 240.906 306.368C228.486 312.527 192.253 349.565 183.259 371.035C200.904 347.597 239.278 360.257 239.45 392.591C247.759 359.573 283.392 308.592 285.362 306.111Z" fill="white" stroke="#010101" stroke-miterlimit="10"/>
<path d="M300.268 305.392C329.392 323.868 346.438 350.898 353.718 377.672C362.712 412.486 347.979 433.443 345.153 443.451C392.264 381.093 395.091 443.451 395.091 443.451C411.194 405.215 406.74 366.039 383.27 339.094C359.8 312.149 343.268 304.194 334.36 301.2C325.366 298.121 306.093 301.885 300.268 305.392Z" fill="white" stroke="#010101" stroke-miterlimit="10"/>
<path d="M512.915 504.363L417.63 502.467L417.178 416.161H512.915V504.363Z" fill="white" stroke="#010101" stroke-miterlimit="10"/>
<path d="M512.913 416.161L546.543 423.925V496.599L512.913 504.317V416.161Z" fill="#DEDEDE" stroke="#010101" stroke-miterlimit="10"/>
<path d="M474.317 503.505L454.428 503.099L454.292 416.161H474.181L474.317 503.505Z" fill="#273DA4" stroke="#010101" stroke-miterlimit="10"/>
<path d="M536.818 498.689L526.738 501.036V419.335L536.818 421.637V498.689Z" fill="#273DA4" stroke="#010101" stroke-miterlimit="10"/>
<path d="M513.32 398.916H411.21V416.249H513.32V398.916Z" fill="white" stroke="#010101" stroke-miterlimit="10"/>
<path d="M550.788 424.826L513.09 415.933L513.316 398.916L551.285 409.569L550.788 424.826Z" fill="#DEDEDE" stroke="#010101" stroke-miterlimit="10"/>
<path d="M477.028 398.213H458.089V416.223H477.028V398.213Z" fill="#273DA4" stroke="#010101" stroke-miterlimit="10"/>
<path d="M540.934 422.472L531.17 420.215L531.532 404.101L540.979 406.854L540.934 422.472Z" fill="#273DA4" stroke="#010101" stroke-miterlimit="10"/>
<path d="M433.768 358.95C425.903 362.516 423.01 368.068 425.948 378.36C428.027 384.137 441.407 398.672 456.866 397.724C443.305 387.794 440.548 367.932 449.633 366.985C446.605 356.738 433.768 358.95 433.768 358.95Z" fill="#152365" stroke="#010101" stroke-miterlimit="10"/>
<path d="M427.392 381.124C425.855 373.902 427.482 364.694 434.172 364.107C440.862 363.52 449.766 365.867 460.569 379.815C467.711 389.069 468.977 400.624 474.085 398.006C472.729 371.149 467.35 358.374 453.111 348.579C448.23 345.194 440.319 344.742 431.686 350.52C429.335 352.01 427.798 353.454 425.855 355.485C416.317 365.461 427.392 381.124 427.392 381.124Z" fill="#273DA4" stroke="#010101" stroke-miterlimit="10"/>
<path d="M511.154 354.523C512.6 367.433 500.712 375.784 489.683 386.256C483.897 391.763 481.004 397.179 481.004 397.179C478.563 395.239 479.784 393.433 480.372 390.77C492.079 373.211 493.661 360.572 489.502 357.548C491.265 350.416 507.718 340.485 511.154 354.523Z" fill="#152365" stroke="#010101" stroke-miterlimit="10"/>
<path d="M473.644 397.233C468.582 367.667 469.305 353.313 474.141 343.744C479.339 333.407 484.718 330.924 494.572 335.799C510.257 343.563 511.342 348.709 511.161 354.532C508.314 347.897 501.895 348.393 497.917 351.417C493.94 354.442 485.487 364.417 482.91 378.997C482.097 384.008 480.515 393.306 481.012 397.233C478.978 397.775 473.87 398.587 473.644 397.233Z" fill="#273DA4" stroke="#010101" stroke-miterlimit="10"/>
<path d="M519.102 376.022C521.815 382.703 520.549 395.567 497.993 398.095C508.932 404.324 538.765 399.901 539.985 390.467C541.748 378.46 535.511 375.616 529.002 374.036C522.447 372.456 519.102 376.022 519.102 376.022Z" fill="#152365" stroke="#010101" stroke-miterlimit="10"/>
<path d="M481.148 397.183C492.313 377.863 511.614 357.054 524.812 357.235C531.864 357.235 543.571 383.506 539.955 390.547C539.458 380.752 533.717 377.638 525.445 377.909C517.173 378.225 499.59 394.068 490.911 397.228C483.544 398.943 481.148 397.183 481.148 397.183Z" fill="#273DA4" stroke="#010101" stroke-miterlimit="10"/>
<path d="M470.97 398.053C465.455 395.48 453.07 394.622 447.51 398.188C440.956 401.438 421.836 420.983 417.09 432.313C426.401 419.945 446.652 426.626 446.742 443.688C451.126 426.265 469.93 399.362 470.97 398.053Z" fill="#273DA4" stroke="#010101" stroke-miterlimit="10"/>
<path d="M478.836 397.673C494.204 407.423 503.199 421.687 507.042 435.816C511.788 454.187 504.013 465.246 502.521 470.527C527.382 437.621 528.874 470.527 528.874 470.527C537.372 450.35 535.021 429.677 522.636 415.458C510.251 401.239 501.527 397.041 496.826 395.461C492.08 393.836 481.91 395.823 478.836 397.673Z" fill="#273DA4" stroke="#010101" stroke-miterlimit="10"/>
</svg>
