<svg width="13" height="13" viewBox="0 0 13 13" fill="none" xmlns="http://www.w3.org/2000/svg">
<path d="M3.10498 12.5H0.542705V3.92857H3.10498V12.5ZM12.5 12.5H9.93772V7.92114C9.93772 6.728 9.51409 6.134 8.67452 6.134C8.00918 6.134 7.58726 6.46657 7.37545 7.13257C7.37545 8.21429 7.37545 12.5 7.37545 12.5H4.81317C4.81317 12.5 4.84733 4.78571 4.81317 3.92857H6.83566L6.99196 5.64286H7.04491C7.57018 4.78571 8.40975 4.20457 9.56107 4.20457C10.4365 4.20457 11.1446 4.44886 11.6852 5.06257C12.2293 5.67714 12.5 6.50171 12.5 7.65971V12.5Z" fill="white"/>
<path d="M1.82384 3.07143C2.55498 3.07143 3.14769 2.49579 3.14769 1.78571C3.14769 1.07563 2.55498 0.5 1.82384 0.5C1.09271 0.5 0.5 1.07563 0.5 1.78571C0.5 2.49579 1.09271 3.07143 1.82384 3.07143Z" fill="white"/>
</svg>
