<svg width="206" height="24" viewBox="0 0 206 24" fill="none" xmlns="http://www.w3.org/2000/svg">
<g opacity="0.2">
<path fill-rule="evenodd" clip-rule="evenodd" d="M35.417 0.000244141H0V24.0001H35.417L44.7372 12.0001L35.417 0.000244141ZM15.5923 10.247L15.5926 10.2473L15.5936 10.2481C15.6467 10.291 15.7001 10.3343 15.7542 10.3776C15.7904 10.3556 15.8128 10.3255 15.8338 10.2972C15.8388 10.2906 15.8436 10.2841 15.8485 10.2778C16.0392 10.0516 16.2287 9.82423 16.4182 9.59684L16.4184 9.5965L16.4187 9.59617L16.4195 9.59526C16.8005 9.14064 17.1803 8.68602 17.5601 8.23017C17.6358 8.139 17.6333 8.09712 17.5464 8.02319C17.4782 7.96406 17.4087 7.90615 17.3379 7.84825C16.7347 7.35544 16.0719 6.97105 15.321 6.74805C14.8196 6.60021 14.307 6.51889 13.7857 6.48317C13.1056 6.43758 12.4316 6.45976 11.7639 6.61376C9.42553 7.15092 7.68045 9.08273 7.47566 11.5591C7.42105 12.2269 7.47318 12.8885 7.64446 13.5377C8.03419 15.0075 8.88066 16.1336 10.2248 16.8753C10.9571 17.2794 11.7502 17.4925 12.5843 17.5591C13.2905 17.6157 13.9893 17.5726 14.6794 17.4174C15.8461 17.155 16.8775 16.6252 17.7947 15.8675C17.8679 15.8071 17.8977 15.7467 17.8977 15.6507C17.8947 14.4716 17.8949 13.2918 17.8951 12.1125L17.8952 11.2289C17.8952 11.2136 17.8941 11.1981 17.893 11.1825V11.1825C17.8907 11.1481 17.8883 11.1137 17.8977 11.0823C17.9086 11.0458 17.8889 11.0249 17.8697 11.0045C17.8538 10.9877 17.8384 10.9713 17.8406 10.9468C17.8456 10.9061 17.8183 10.9 17.786 10.9H17.6991H12.8598C12.8548 10.9 12.8498 10.9 12.8448 10.9002C12.8402 10.9003 12.8357 10.9004 12.8311 10.9005C12.8116 10.9011 12.792 10.9016 12.7729 10.9C12.7233 10.895 12.7072 10.9197 12.7109 10.9653C12.7125 10.9842 12.712 11.0037 12.7114 11.023L12.7111 11.0339L12.7109 11.0515L12.7106 11.8277C12.7103 12.3451 12.7101 12.8626 12.7109 13.38C12.7109 13.4014 12.7105 13.4199 12.7101 13.4357C12.7091 13.483 12.7086 13.5074 12.7205 13.5198C12.7332 13.5329 12.7598 13.5326 12.8145 13.5319H12.8146C12.8238 13.5318 12.8338 13.5317 12.8447 13.5316C12.8499 13.5316 12.8554 13.5316 12.8611 13.5316H14.8097C14.8269 13.5316 14.8421 13.5314 14.8556 13.5312C14.9096 13.5306 14.9358 13.5303 14.9484 13.5432C14.9602 13.5554 14.9598 13.5794 14.959 13.6261C14.9588 13.6425 14.9585 13.6618 14.9586 13.6843C14.9594 13.7967 14.9592 13.9086 14.9589 14.0206V14.0207V14.0209L14.9586 14.1895V14.1936C14.9586 14.4248 14.9586 14.4266 14.7489 14.527C14.1345 14.8203 13.4854 14.904 12.8151 14.8203C12.0704 14.7279 11.4747 14.3767 11.0378 13.7694C10.7536 13.3739 10.5984 12.9279 10.5401 12.4474C10.4669 11.8338 10.5413 11.2437 10.8206 10.6868C11.1569 10.0178 11.6658 9.53735 12.3969 9.31682C12.9095 9.16158 13.4283 9.20224 13.9421 9.31435C14.4075 9.41538 14.8134 9.64207 15.187 9.92667C15.3239 10.0299 15.457 10.1376 15.5923 10.247L15.5923 10.247ZM29.3779 8.01225C28.2298 6.96996 26.8621 6.47345 25.4484 6.46236C24.7956 6.46359 24.3078 6.51657 23.7902 6.65086C22.2884 7.04141 21.113 7.87919 20.3324 9.21716C19.5306 10.5896 19.368 12.0619 19.816 13.5761C20.3175 15.2689 21.3861 16.5009 23.0393 17.1871C24.309 17.7132 25.6247 17.7834 26.9515 17.436C28.493 17.0331 29.6746 16.1424 30.449 14.7526C31.1019 13.581 31.2769 12.3243 31.0336 11.0122C30.8152 9.83318 30.2691 8.82292 29.3779 8.01225ZM23.0381 10.6586C23.5383 9.73831 24.3376 9.29725 25.1133 9.28C26.6871 9.2763 27.716 10.1597 27.9965 11.3843C28.1665 12.1223 28.0908 12.8393 27.7272 13.5095C27.299 14.2968 26.6312 14.7551 25.7326 14.8574C24.8638 14.9572 24.1055 14.712 23.4861 14.0886C23.089 13.6894 22.8494 13.2028 22.7476 12.6533C22.6186 11.9572 22.698 11.2833 23.0381 10.6586Z" fill="#FBFBFB"/>
<path fill-rule="evenodd" clip-rule="evenodd" d="M80.1552 0H44.7383V23.9998H80.1552V0ZM55.9229 6.60785V11.8427V17.0529C55.9229 17.064 55.9232 17.0752 55.9235 17.0862L55.9235 17.0863C55.924 17.1083 55.9246 17.1302 55.9229 17.1515C55.918 17.2119 55.9341 17.2476 56.0036 17.2377C56.0202 17.2361 56.0367 17.2366 56.0533 17.2372C56.0615 17.2375 56.0698 17.2377 56.0781 17.2377L56.9582 17.238H56.9609C57.5472 17.2383 58.1339 17.2386 58.7205 17.2377C58.731 17.2377 58.7408 17.2378 58.75 17.2379C58.757 17.238 58.7636 17.238 58.7699 17.2381C58.8264 17.2388 58.8539 17.2392 58.8669 17.2256C58.8793 17.2128 58.8787 17.1876 58.8777 17.1385C58.8773 17.1219 58.8769 17.1025 58.8769 17.08V6.62264C58.8769 6.61442 58.8766 6.60621 58.8764 6.598V6.59797C58.8758 6.58155 58.8752 6.56514 58.8769 6.54872C58.8831 6.48711 58.862 6.45508 58.795 6.46247C58.7818 6.46411 58.7681 6.46357 58.7541 6.46303H58.7541C58.7471 6.46275 58.74 6.46247 58.7329 6.46247L57.8441 6.4622C57.2512 6.46193 56.6582 6.46165 56.0657 6.46247C56.0481 6.46247 56.0326 6.46224 56.0191 6.46204C55.9702 6.46131 55.9457 6.46095 55.9336 6.47303C55.9214 6.48519 55.9217 6.50997 55.9225 6.5597C55.9227 6.57368 55.9229 6.58964 55.9229 6.60785ZM70.636 6.46283H66.2299H66.2282C64.7605 6.46283 63.2927 6.46283 61.8262 6.4616L61.7929 6.46188C61.771 6.46215 61.7492 6.46242 61.7269 6.4616C61.6773 6.45914 61.6599 6.48255 61.6636 6.52813C61.6645 6.54205 61.6642 6.55542 61.6639 6.56897L61.6636 6.58973V9.09074L61.6636 9.11667C61.6633 9.17026 61.6632 9.19669 61.6763 9.20962C61.6891 9.2222 61.7145 9.22197 61.7646 9.22153L61.7989 9.22133H64.5667C64.6572 9.22133 64.7018 9.22133 64.7239 9.24367C64.7455 9.26548 64.7455 9.3086 64.7455 9.39382V17.105C64.7455 17.1199 64.7453 17.133 64.7451 17.1447C64.7445 17.1889 64.7441 17.212 64.7555 17.2241C64.768 17.2373 64.7948 17.2372 64.8508 17.237L64.8783 17.2369H64.9155H67.5344C67.6177 17.2369 67.659 17.2369 67.6794 17.2162C67.6994 17.196 67.6994 17.156 67.6994 17.0767V9.36548C67.6994 9.34875 67.6992 9.33396 67.699 9.32089C67.6983 9.27332 67.6979 9.24854 67.7101 9.23572C67.7233 9.22178 67.7515 9.22198 67.8102 9.2224L67.8471 9.22256H70.6646C70.7862 9.22256 70.7862 9.22257 70.7874 9.10306V9.0661V6.61437C70.7874 6.59728 70.7876 6.58209 70.7878 6.56859C70.7885 6.51448 70.7888 6.48758 70.7755 6.47439C70.7624 6.46135 70.7359 6.46171 70.6833 6.46243C70.6695 6.46262 70.6538 6.46283 70.636 6.46283Z" fill="#FBFBFB"/>
<path fill-rule="evenodd" clip-rule="evenodd" d="M84.1632 0H206V24H84.1632V0ZM190.531 17.1528C191.353 17.3682 192.206 17.4759 193.09 17.4759C194.159 17.4759 195.042 17.3169 195.741 16.9989C196.45 16.681 196.979 16.2605 197.329 15.7374C197.688 15.2041 197.868 14.6246 197.868 13.9989C197.868 13.4348 197.755 12.9682 197.529 12.5989C197.313 12.2195 197.026 11.9169 196.666 11.6913C196.306 11.4554 195.905 11.2707 195.464 11.1374C195.032 10.9938 194.595 10.8759 194.153 10.7836C193.722 10.6913 193.321 10.6041 192.951 10.522C192.591 10.4297 192.298 10.3169 192.072 10.1836C191.857 10.04 191.749 9.85023 191.749 9.61434C191.749 9.42972 191.805 9.26562 191.918 9.12203C192.031 8.97844 192.216 8.86562 192.473 8.78357C192.73 8.69126 193.069 8.64511 193.491 8.64511C193.963 8.64511 194.451 8.7169 194.955 8.86049C195.458 8.99382 195.967 9.19895 196.481 9.47587L197.421 7.21434C196.887 6.90665 196.275 6.67588 195.587 6.52203C194.909 6.35793 194.215 6.27588 193.506 6.27588C192.447 6.27588 191.564 6.43485 190.855 6.7528C190.146 7.07075 189.611 7.49126 189.252 8.01434C188.902 8.53741 188.727 9.12203 188.727 9.76818C188.727 10.3425 188.84 10.8195 189.067 11.1989C189.293 11.5682 189.586 11.8707 189.945 12.1066C190.305 12.3323 190.701 12.5169 191.132 12.6605C191.574 12.8041 192.011 12.922 192.442 13.0143C192.884 13.1066 193.285 13.1989 193.645 13.2913C194.004 13.3836 194.297 13.5015 194.523 13.6451C194.749 13.7887 194.862 13.9836 194.862 14.2297C194.862 14.4041 194.801 14.5579 194.677 14.6913C194.564 14.8143 194.379 14.9169 194.123 14.9989C193.866 15.0707 193.527 15.1066 193.105 15.1066C192.478 15.1066 191.846 15.0092 191.209 14.8143C190.582 14.6092 190.027 14.3528 189.544 14.0451L188.542 16.2913C189.056 16.64 189.719 16.9271 190.531 17.1528ZM113.809 6.49126H116.861V17.2605H113.809V13.0605H109.647V17.2605H106.595V6.49126H109.647V10.5374H113.809V6.49126ZM95.3805 17.2886V6.51939H100.313C101.3 6.51939 102.147 6.67836 102.857 6.99631C103.576 7.31426 104.131 7.7758 104.521 8.38092C104.912 8.9758 105.107 9.68349 105.107 10.504C105.107 11.3143 104.912 12.0168 104.521 12.6117C104.131 13.2066 103.576 13.6681 102.857 13.9963C102.147 14.3142 101.3 14.4732 100.313 14.4732H98.4326V17.2886H95.3805ZM100.128 12.0732H98.4326V8.91938H100.128C100.765 8.91938 101.238 9.05785 101.546 9.33477C101.865 9.61169 102.024 10.0014 102.024 10.504C102.024 10.9963 101.865 11.3809 101.546 11.6578C101.238 11.9348 100.765 12.0732 100.128 12.0732ZM119.014 6.49126V17.2605H122.066V6.49126H119.014ZM124.238 17.2605V6.49126H127.29V14.8451H132.438V17.2605H124.238ZM133.646 6.49126V17.2605H136.698V6.49126H133.646ZM138.869 17.2605V6.49126H143.802C144.789 6.49126 145.636 6.65024 146.345 6.96819C147.065 7.28613 147.62 7.74767 148.01 8.3528C148.401 8.94767 148.596 9.65536 148.596 10.4759C148.596 11.2861 148.401 11.9887 148.01 12.5836C147.62 13.1784 147.065 13.64 146.345 13.9682C145.636 14.2861 144.789 14.4451 143.802 14.4451H141.921V17.2605H138.869ZM143.617 12.0451H141.921V8.89126H143.617C144.254 8.89126 144.727 9.02972 145.035 9.30664C145.354 9.58357 145.513 9.97331 145.513 10.4759C145.513 10.9682 145.354 11.3528 145.035 11.6297C144.727 11.9066 144.254 12.0451 143.617 12.0451ZM150.084 6.49126V17.2605H153.136V14.4451H155.017C156.003 14.4451 156.851 14.2861 157.56 13.9682C158.279 13.64 158.834 13.1784 159.225 12.5836C159.615 11.9887 159.811 11.2861 159.811 10.4759C159.811 9.65536 159.615 8.94767 159.225 8.3528C158.834 7.74767 158.279 7.28613 157.56 6.96819C156.851 6.65024 156.003 6.49126 155.017 6.49126H150.084ZM153.136 12.0451H154.832C155.469 12.0451 155.942 11.9066 156.25 11.6297C156.568 11.3528 156.728 10.9682 156.728 10.4759C156.728 9.97331 156.568 9.58357 156.25 9.30664C155.942 9.02972 155.469 8.89126 154.832 8.89126H153.136V12.0451ZM161.299 17.2605V6.49126H164.351V17.2605H161.299ZM166.522 6.49126V17.2605H169.513V11.5214L174.276 17.2605H176.788V6.49126H173.798V12.2304L169.035 6.49126H166.522ZM181.962 14.9066V12.9374H186.756V10.6605H181.962V8.84511H187.404V6.49126H178.941V17.2605H187.604V14.9066H181.962Z" fill="#FBFBFB"/>
</g>
</svg>
