<svg width="12" height="12" viewBox="0 0 12 12" fill="none" xmlns="http://www.w3.org/2000/svg">
<g clip-path="url(#clip0_1_607)">
<path d="M6.04375 0C2.81281 0 0.184259 2.62855 0.184259 5.85946C0.184259 6.96308 0.490401 8.03108 1.07152 8.96058L0.120087 11.5031C0.0695662 11.6381 0.102535 11.7903 0.204497 11.8922C0.274777 11.9625 0.368828 12 0.464755 12C0.508027 12 0.551667 11.9924 0.593651 11.9766L3.21948 10.994C4.08135 11.4688 5.05391 11.7189 6.04372 11.7189C9.27466 11.7189 11.9032 9.09036 11.9032 5.85946C11.9032 2.62855 9.27469 0 6.04375 0ZM8.86722 7.69948C8.70358 8.28133 8.09193 8.70356 7.41286 8.70353C7.34644 8.70353 7.27936 8.6994 7.21449 8.69135C6.38912 8.57268 5.42315 8.00639 4.62869 7.17458C3.79206 6.37556 3.22577 5.40974 3.1138 4.59099C3.00047 3.76235 3.37127 3.1444 4.10557 2.9379C4.14328 2.9273 4.18317 2.92193 4.22412 2.92193C4.65427 2.92193 5.16665 3.5298 5.34463 3.96557C5.46054 4.24938 5.45174 4.46802 5.31924 4.59795C4.98675 4.92381 4.86283 5.12192 4.87714 5.30461C4.89318 5.5082 5.08268 5.74344 5.40461 6.08093C5.44567 6.12406 5.50065 6.18146 5.56239 6.24346C5.62005 6.3009 5.67532 6.35385 5.72418 6.40058C6.08357 6.7433 6.31825 6.92904 6.52909 6.92904C6.70442 6.92901 6.89451 6.80475 7.20706 6.48584C7.25441 6.43756 7.34173 6.38005 7.48884 6.38005C7.87674 6.38005 8.42416 6.7586 8.69207 7.11218C8.85445 7.3264 8.91498 7.52951 8.86722 7.69948Z" fill="white"/>
</g>
<defs>
<clipPath id="clip0_1_607">
<rect width="12" height="12" fill="white"/>
</clipPath>
</defs>
</svg>
