<svg width="12" height="13" viewBox="0 0 12 13" fill="none" xmlns="http://www.w3.org/2000/svg">
<path fill-rule="evenodd" clip-rule="evenodd" d="M10.6883 2.73939C11.2046 2.87124 11.6112 3.25971 11.7492 3.75291C12 4.64692 12 6.51218 12 6.51218C12 6.51218 12 8.3775 11.7492 9.27146C11.6112 9.76469 11.2046 10.137 10.6883 10.2688C9.75249 10.5084 6 10.5084 6 10.5084C6 10.5084 2.24751 10.5084 1.31166 10.2689C0.795368 10.137 0.388749 9.76471 0.250749 9.27148C0 8.37753 0 6.51221 0 6.51221C0 6.51221 0 4.64692 0.250749 3.75294C0.388749 3.25971 0.795368 2.87126 1.31166 2.73941C2.24751 2.49988 6 2.49988 6 2.49988C6 2.49988 9.75249 2.49988 10.6883 2.73939ZM4.77288 4.81866V8.20573L7.90922 6.51223L4.77288 4.81866Z" fill="white"/>
</svg>
